# xmcd
#
# Track frame offsets:
#	150
#	12042
#	22804
#	32783
#	46060
#	57171
#	69514
#	84166
#	91926
#	103860
#	114524
#	123159
#	133946
#	145977
#	155369
#	165308
#	178868
#	190214
#	202734
#	217826
#	225787
#	236738
#	247664
#	256496
#	266678
#	280258
#
# Disc length: 3876 seconds
#
# Revision: 1
# Processed by: cddbd v1.5.2PL0 Copyright (c) Steve Scherf et al.
# Submitted via: audiograbber 1.83.01
#
DISCID=4d0f221a
DTITLE=The Deep - Psychedelic Moods
DYEAR=1966
DGENRE=Psychadelic
TTITLE0=Color Dreams (Stereo)
TTITLE1=Pink Ether (Stereo)
TTITLE2=When Rain Is Black (Stereo)
TTITLE3=It's All A Part Of Me (Stereo)
TTITLE4=Turned On (Stereo)
TTITLE5=Psychedelic Moon (Stereo)
TTITLE6=Shadows On The Wall (Stereo)
TTITLE7=Crystal Nite (Stereo)
TTITLE8=Trip #76 (Stereo)
TTITLE9=Wake Up And Find Me (Stereo)
TTITLE10=Your Choice To Choose (Stereo)
TTITLE11=On Off - Off On (Stereo)
TTITLE12=Color Dreams (Mono)
TTITLE13=Pink Ether (Mono)
TTITLE14=When Rain Is Black (Mono)
TTITLE15=It's All A Part Of Me (Mono)
TTITLE16=Turned On (Mono)
TTITLE17=Psychedelic Moon (Mono)
TTITLE18=Shadows On The Wall (Mono)
TTITLE19=Crystal Nite (Mono)
TTITLE20=Trip #76 (Mono)
TTITLE21=Wake Up And Find Me (Mono)
TTITLE22=Your Choice To Choose (Mono)
TTITLE23=On Off - Off On (Mono)
TTITLE24=1983
TTITLE25=The Life Game
EXTD=
EXTT0=
EXTT1=
EXTT2=
EXTT3=
EXTT4=
EXTT5=
EXTT6=
EXTT7=
EXTT8=
EXTT9=
EXTT10=
EXTT11=
EXTT12=
EXTT13=
EXTT14=
EXTT15=
EXTT16=
EXTT17=
EXTT18=
EXTT19=
EXTT20=
EXTT21=
EXTT22=
EXTT23=
EXTT24=
EXTT25=
PLAYORDER=
